<mxfile host="app.diagrams.net" modified="2024-01-10T06:10:28.045Z" agent="Mozilla/5.0 (Windows NT 10.0; Win64; x64) AppleWebKit/537.36 (KHTML, like Gecko) Chrome/120.0.0.0 Safari/537.36" etag="7aJuP3SwqXZBSFltzMnX" version="22.1.18" type="github">
  <diagram id="C5RBs43oDa-KdzZeNtuy" name="Page-1">
    <mxGraphModel dx="1500" dy="813" grid="1" gridSize="10" guides="1" tooltips="1" connect="1" arrows="1" fold="1" page="1" pageScale="1" pageWidth="827" pageHeight="1169" math="0" shadow="0">
      <root>
        <mxCell id="WIyWlLk6GJQsqaUBKTNV-0" />
        <mxCell id="WIyWlLk6GJQsqaUBKTNV-1" parent="WIyWlLk6GJQsqaUBKTNV-0" />
        <mxCell id="oBnO-SRhFLb10J7weYcZ-2" value="" style="edgeStyle=orthogonalEdgeStyle;rounded=0;orthogonalLoop=1;jettySize=auto;html=1;" edge="1" parent="WIyWlLk6GJQsqaUBKTNV-1" source="oBnO-SRhFLb10J7weYcZ-0" target="oBnO-SRhFLb10J7weYcZ-3">
          <mxGeometry relative="1" as="geometry">
            <mxPoint x="413" y="190" as="targetPoint" />
          </mxGeometry>
        </mxCell>
        <mxCell id="oBnO-SRhFLb10J7weYcZ-0" value="&lt;font style=&quot;font-size: 21px;&quot;&gt;Boshlash&lt;/font&gt;" style="ellipse;whiteSpace=wrap;html=1;" vertex="1" parent="WIyWlLk6GJQsqaUBKTNV-1">
          <mxGeometry x="427" y="10" width="216" height="80" as="geometry" />
        </mxCell>
        <mxCell id="oBnO-SRhFLb10J7weYcZ-8" value="" style="edgeStyle=orthogonalEdgeStyle;rounded=0;orthogonalLoop=1;jettySize=auto;html=1;" edge="1" parent="WIyWlLk6GJQsqaUBKTNV-1" source="oBnO-SRhFLb10J7weYcZ-3" target="oBnO-SRhFLb10J7weYcZ-7">
          <mxGeometry relative="1" as="geometry" />
        </mxCell>
        <mxCell id="oBnO-SRhFLb10J7weYcZ-3" value="Tur nechta bo&#39;lishi aniqlanadi" style="rounded=0;whiteSpace=wrap;html=1;" vertex="1" parent="WIyWlLk6GJQsqaUBKTNV-1">
          <mxGeometry x="445" y="150" width="180" height="60" as="geometry" />
        </mxCell>
        <mxCell id="oBnO-SRhFLb10J7weYcZ-4" style="edgeStyle=orthogonalEdgeStyle;rounded=0;orthogonalLoop=1;jettySize=auto;html=1;exitX=0.5;exitY=1;exitDx=0;exitDy=0;" edge="1" parent="WIyWlLk6GJQsqaUBKTNV-1" source="oBnO-SRhFLb10J7weYcZ-3" target="oBnO-SRhFLb10J7weYcZ-3">
          <mxGeometry relative="1" as="geometry" />
        </mxCell>
        <mxCell id="oBnO-SRhFLb10J7weYcZ-56" style="edgeStyle=orthogonalEdgeStyle;rounded=0;orthogonalLoop=1;jettySize=auto;html=1;entryX=0.5;entryY=0;entryDx=0;entryDy=0;" edge="1" parent="WIyWlLk6GJQsqaUBKTNV-1" source="oBnO-SRhFLb10J7weYcZ-5" target="oBnO-SRhFLb10J7weYcZ-9">
          <mxGeometry relative="1" as="geometry" />
        </mxCell>
        <mxCell id="oBnO-SRhFLb10J7weYcZ-58" style="edgeStyle=orthogonalEdgeStyle;rounded=0;orthogonalLoop=1;jettySize=auto;html=1;exitX=1;exitY=0.5;exitDx=0;exitDy=0;entryX=0;entryY=0.5;entryDx=0;entryDy=0;" edge="1" parent="WIyWlLk6GJQsqaUBKTNV-1" source="oBnO-SRhFLb10J7weYcZ-5" target="oBnO-SRhFLb10J7weYcZ-15">
          <mxGeometry relative="1" as="geometry" />
        </mxCell>
        <mxCell id="oBnO-SRhFLb10J7weYcZ-5" value="1 ta shart kiritiladi&amp;nbsp;" style="rounded=0;whiteSpace=wrap;html=1;" vertex="1" parent="WIyWlLk6GJQsqaUBKTNV-1">
          <mxGeometry x="195.61" y="240" width="180" height="60" as="geometry" />
        </mxCell>
        <mxCell id="oBnO-SRhFLb10J7weYcZ-57" style="edgeStyle=orthogonalEdgeStyle;rounded=0;orthogonalLoop=1;jettySize=auto;html=1;exitX=0.5;exitY=1;exitDx=0;exitDy=0;" edge="1" parent="WIyWlLk6GJQsqaUBKTNV-1" source="oBnO-SRhFLb10J7weYcZ-7" target="oBnO-SRhFLb10J7weYcZ-15">
          <mxGeometry relative="1" as="geometry" />
        </mxCell>
        <mxCell id="oBnO-SRhFLb10J7weYcZ-59" style="edgeStyle=orthogonalEdgeStyle;rounded=0;orthogonalLoop=1;jettySize=auto;html=1;exitX=0;exitY=0.5;exitDx=0;exitDy=0;entryX=1;entryY=0.5;entryDx=0;entryDy=0;" edge="1" parent="WIyWlLk6GJQsqaUBKTNV-1" source="oBnO-SRhFLb10J7weYcZ-7" target="oBnO-SRhFLb10J7weYcZ-9">
          <mxGeometry relative="1" as="geometry" />
        </mxCell>
        <mxCell id="oBnO-SRhFLb10J7weYcZ-7" value="5ta shart kiritiladi" style="whiteSpace=wrap;html=1;rounded=0;" vertex="1" parent="WIyWlLk6GJQsqaUBKTNV-1">
          <mxGeometry x="670" y="240" width="177" height="60" as="geometry" />
        </mxCell>
        <mxCell id="oBnO-SRhFLb10J7weYcZ-18" style="edgeStyle=orthogonalEdgeStyle;rounded=0;orthogonalLoop=1;jettySize=auto;html=1;" edge="1" parent="WIyWlLk6GJQsqaUBKTNV-1" source="oBnO-SRhFLb10J7weYcZ-9" target="oBnO-SRhFLb10J7weYcZ-19">
          <mxGeometry relative="1" as="geometry">
            <mxPoint x="345.62" y="510" as="targetPoint" />
          </mxGeometry>
        </mxCell>
        <mxCell id="oBnO-SRhFLb10J7weYcZ-9" value="Jamo bo&#39;lib qatnashish&amp;nbsp;" style="rounded=0;whiteSpace=wrap;html=1;" vertex="1" parent="WIyWlLk6GJQsqaUBKTNV-1">
          <mxGeometry x="195.61" y="400" width="180" height="60" as="geometry" />
        </mxCell>
        <mxCell id="oBnO-SRhFLb10J7weYcZ-60" style="edgeStyle=orthogonalEdgeStyle;rounded=0;orthogonalLoop=1;jettySize=auto;html=1;exitX=0.5;exitY=1;exitDx=0;exitDy=0;entryX=0.5;entryY=0;entryDx=0;entryDy=0;" edge="1" parent="WIyWlLk6GJQsqaUBKTNV-1" source="oBnO-SRhFLb10J7weYcZ-15" target="oBnO-SRhFLb10J7weYcZ-24">
          <mxGeometry relative="1" as="geometry" />
        </mxCell>
        <mxCell id="oBnO-SRhFLb10J7weYcZ-15" value="Yakka bo&#39;lib qatnashish" style="rounded=0;whiteSpace=wrap;html=1;" vertex="1" parent="WIyWlLk6GJQsqaUBKTNV-1">
          <mxGeometry x="643" y="390" width="155" height="60" as="geometry" />
        </mxCell>
        <mxCell id="oBnO-SRhFLb10J7weYcZ-61" style="edgeStyle=orthogonalEdgeStyle;rounded=0;orthogonalLoop=1;jettySize=auto;html=1;exitX=0.5;exitY=1;exitDx=0;exitDy=0;entryX=0.5;entryY=0;entryDx=0;entryDy=0;" edge="1" parent="WIyWlLk6GJQsqaUBKTNV-1" source="oBnO-SRhFLb10J7weYcZ-19" target="oBnO-SRhFLb10J7weYcZ-26">
          <mxGeometry relative="1" as="geometry" />
        </mxCell>
        <mxCell id="oBnO-SRhFLb10J7weYcZ-19" value="jamolar kiritiladi" style="rounded=0;whiteSpace=wrap;html=1;" vertex="1" parent="WIyWlLk6GJQsqaUBKTNV-1">
          <mxGeometry x="225.61" y="490" width="120" height="60" as="geometry" />
        </mxCell>
        <mxCell id="oBnO-SRhFLb10J7weYcZ-64" style="edgeStyle=orthogonalEdgeStyle;rounded=0;orthogonalLoop=1;jettySize=auto;html=1;exitX=0.5;exitY=1;exitDx=0;exitDy=0;entryX=0.5;entryY=0;entryDx=0;entryDy=0;" edge="1" parent="WIyWlLk6GJQsqaUBKTNV-1" source="oBnO-SRhFLb10J7weYcZ-20" target="oBnO-SRhFLb10J7weYcZ-39">
          <mxGeometry relative="1" as="geometry" />
        </mxCell>
        <mxCell id="oBnO-SRhFLb10J7weYcZ-20" value="Turnir jadvali" style="whiteSpace=wrap;html=1;rounded=0;" vertex="1" parent="WIyWlLk6GJQsqaUBKTNV-1">
          <mxGeometry x="459.99" y="790" width="120" height="60" as="geometry" />
        </mxCell>
        <mxCell id="oBnO-SRhFLb10J7weYcZ-62" style="edgeStyle=orthogonalEdgeStyle;rounded=0;orthogonalLoop=1;jettySize=auto;html=1;exitX=0.5;exitY=1;exitDx=0;exitDy=0;entryX=0.5;entryY=0;entryDx=0;entryDy=0;" edge="1" parent="WIyWlLk6GJQsqaUBKTNV-1" source="oBnO-SRhFLb10J7weYcZ-24" target="oBnO-SRhFLb10J7weYcZ-26">
          <mxGeometry relative="1" as="geometry">
            <mxPoint x="540" y="630" as="targetPoint" />
          </mxGeometry>
        </mxCell>
        <mxCell id="oBnO-SRhFLb10J7weYcZ-24" value="Ishtirokchilar kiritladi" style="whiteSpace=wrap;html=1;rounded=0;" vertex="1" parent="WIyWlLk6GJQsqaUBKTNV-1">
          <mxGeometry x="633.63" y="510" width="173.75" height="40" as="geometry" />
        </mxCell>
        <mxCell id="oBnO-SRhFLb10J7weYcZ-63" style="edgeStyle=orthogonalEdgeStyle;rounded=0;orthogonalLoop=1;jettySize=auto;html=1;exitX=0.5;exitY=1;exitDx=0;exitDy=0;entryX=0.5;entryY=0;entryDx=0;entryDy=0;" edge="1" parent="WIyWlLk6GJQsqaUBKTNV-1" source="oBnO-SRhFLb10J7weYcZ-26" target="oBnO-SRhFLb10J7weYcZ-20">
          <mxGeometry relative="1" as="geometry" />
        </mxCell>
        <mxCell id="oBnO-SRhFLb10J7weYcZ-26" value="musoboqa boshlanishi" style="whiteSpace=wrap;html=1;rounded=0;" vertex="1" parent="WIyWlLk6GJQsqaUBKTNV-1">
          <mxGeometry x="459.995" y="630" width="120" height="60" as="geometry" />
        </mxCell>
        <mxCell id="oBnO-SRhFLb10J7weYcZ-39" value="Tugash" style="ellipse;whiteSpace=wrap;html=1;rounded=0;" vertex="1" parent="WIyWlLk6GJQsqaUBKTNV-1">
          <mxGeometry x="439.99" y="930" width="160" height="40" as="geometry" />
        </mxCell>
        <mxCell id="oBnO-SRhFLb10J7weYcZ-55" style="edgeStyle=orthogonalEdgeStyle;rounded=0;orthogonalLoop=1;jettySize=auto;html=1;entryX=0.467;entryY=-0.057;entryDx=0;entryDy=0;entryPerimeter=0;" edge="1" parent="WIyWlLk6GJQsqaUBKTNV-1" source="oBnO-SRhFLb10J7weYcZ-3" target="oBnO-SRhFLb10J7weYcZ-5">
          <mxGeometry relative="1" as="geometry" />
        </mxCell>
      </root>
    </mxGraphModel>
  </diagram>
</mxfile>
